HIERARCHY
ROOT Hips
{
	OFFSET 0.000000 0.000000 0.000000
	CHANNELS 6 Xposition Yposition Zposition Zrotation Yrotation Xrotation 
	JOINT LHipJoint
	{
		OFFSET 0.000000 0.000000 0.000000
		CHANNELS 3 Zrotation Yrotation Xrotation
		JOINT LeftUpLeg
		{
			OFFSET 1.363060 -1.794630 0.839290
			CHANNELS 3 Zrotation Yrotation Xrotation
			JOINT LeftLeg
			{
				OFFSET 2.448110 -6.726130 0.000000
				CHANNELS 3 Zrotation Yrotation Xrotation
				JOINT LeftFoot
				{
					OFFSET 2.562200 -7.039590 0.000000
					CHANNELS 3 Zrotation Yrotation Xrotation
					JOINT LeftToeBase
					{
						OFFSET 0.157640 -0.433110 2.322550
						CHANNELS 3 Zrotation Yrotation Xrotation
						End Site
						{
							OFFSET 0.000000 0.000000 0.000000
						}
					}
				}
			}
		}
	}
	JOINT RHipJoint
	{
		OFFSET 0.000000 0.000000 0.000000
		CHANNELS 3 Zrotation Yrotation Xrotation
		JOINT RightUpLeg
		{
			OFFSET -1.305520 -1.794630 0.839290
			CHANNELS 3 Zrotation Yrotation Xrotation
			JOINT RightLeg
			{
				OFFSET -2.542530 -6.985550 0.000000
				CHANNELS 3 Zrotation Yrotation Xrotation
				JOINT RightFoot
				{
					OFFSET -2.568260 -7.056230 0.000000
					CHANNELS 3 Zrotation Yrotation Xrotation
					JOINT RightToeBase
					{
						OFFSET -0.164730 -0.452590 2.363150
						CHANNELS 3 Zrotation Yrotation Xrotation
						End Site
						{
							OFFSET 0.000000 0.000000 0.000000
						}
					}
				}
			}
		}
	}
	JOINT LowerBack
	{
		OFFSET 0.000000 0.000000 0.000000
		CHANNELS 3 Zrotation Yrotation Xrotation
		JOINT Spine
		{
			OFFSET 0.028270 2.035590 -0.193380
			CHANNELS 3 Zrotation Yrotation Xrotation
			JOINT Spine1
			{
				OFFSET 0.056720 2.048850 -0.042750
				CHANNELS 3 Zrotation Yrotation Xrotation
				JOINT Neck
				{
					OFFSET 0.000000 0.000000 0.000000
					CHANNELS 3 Zrotation Yrotation Xrotation
					JOINT Neck1
					{
						OFFSET -0.054170 1.746240 0.172020
						CHANNELS 3 Zrotation Yrotation Xrotation
						JOINT Head
						{
							OFFSET 0.104070 1.761360 -0.123970
							CHANNELS 3 Zrotation Yrotation Xrotation
							End Site
							{
								OFFSET 0.000000 0.000000 0.000000
							}
						}
					}
				}
				JOINT LeftShoulder
				{
					OFFSET 0.000000 0.000000 0.000000
					CHANNELS 3 Zrotation Yrotation Xrotation
					JOINT LeftArm
					{
						OFFSET 3.362410 1.200890 -0.311210
						CHANNELS 3 Zrotation Yrotation Xrotation
						JOINT LeftForeArm
						{
							OFFSET 4.983000 -0.000000 -0.000000
							CHANNELS 3 Zrotation Yrotation Xrotation
							JOINT LeftHand
							{
								OFFSET 3.483560 -0.000000 -0.000000
								CHANNELS 3 Zrotation Yrotation Xrotation
								JOINT LeftFingerBase
								{
									OFFSET 0.000000 0.000000 0.000000
									CHANNELS 3 Zrotation Yrotation Xrotation
									JOINT LeftHandIndex1
									{
										OFFSET 0.715260 -0.000000 -0.000000
										CHANNELS 3 Zrotation Yrotation Xrotation
										End Site
										{
											OFFSET 0.000000 0.000000 0.000000
										}
									}
								}
								JOINT LThumb
								{
									OFFSET 0.000000 0.000000 0.000000
									CHANNELS 3 Zrotation Yrotation Xrotation
									End Site
									{
										OFFSET 0.000000 0.000000 0.000000
									}
								}
							}
						}
					}
				}
				JOINT RightShoulder
				{
					OFFSET 0.000000 0.000000 0.000000
					CHANNELS 3 Zrotation Yrotation Xrotation
					JOINT RightArm
					{
						OFFSET -3.136600 1.374050 -0.404650
						CHANNELS 3 Zrotation Yrotation Xrotation
						JOINT RightForeArm
						{
							OFFSET -5.241900 -0.000000 -0.000000
							CHANNELS 3 Zrotation Yrotation Xrotation
							JOINT RightHand
							{
								OFFSET -3.444170 -0.000000 -0.000000
								CHANNELS 3 Zrotation Yrotation Xrotation
								JOINT RightFingerBase
								{
									OFFSET 0.000000 0.000000 0.000000
									CHANNELS 3 Zrotation Yrotation Xrotation
									JOINT RightHandIndex1
									{
										OFFSET -0.622530 -0.000000 -0.000000
										CHANNELS 3 Zrotation Yrotation Xrotation
										End Site
										{
											OFFSET 0.000000 0.000000 0.000000
										}
									}
								}
								JOINT RThumb
								{
									OFFSET 0.000000 0.000000 0.000000
									CHANNELS 3 Zrotation Yrotation Xrotation
									End Site
									{
										OFFSET 0.000000 0.000000 0.000000
									}
								}
							}
						}
					}
				}
			}
		}
	}
}
MOTION
Frames: 7
Frame Time: 0.008333
0.003869 17.949443 -9.385146 -3.438438 0.767304 8.889069 -1.645503 0.691371 1.159047 -9.948224 -3.597907 -13.902578 0.486293 7.926998 23.645674 0.033991 2.012099 -8.755969 0.261900 -3.292200 -9.093400 3.794033 0.754515 0.553773 16.320619 7.195635 -12.263913 -1.696258 -8.392618 22.925829 0.069947 -3.498278 -9.727295 -0.024400 -1.008500 2.772200 -3.712469 -0.444469 -8.394095 5.397617 -0.133017 1.993956 4.961894 -0.006572 2.608622 0.764079 -0.673503 -12.734480 -2.790482 1.129661 37.614718 -2.614500 0.686800 18.339700 -0.621288 4.971704 -1.505818 -86.121502 4.695607 59.563194 103.873887 -61.712835 -70.552062 -0.655667 0.816707 -36.111598 0.637187 49.823884 0.516000 -7.125000 0.000000 0.000000 -61.126500 69.924000 -41.211700 0.839028 -3.690834 -1.917022 76.498456 -5.142810 66.369139 -111.378812 59.353978 -75.776593 0.066128 -0.534842 4.712404 -19.198224 17.130090 -6.072900 7.125000 0.000000 0.000000 5.703100 -11.392000 4.487100 
0.009523 17.951824 -9.382071 -3.536013 0.750043 9.087387 -1.623453 0.687283 1.147758 -9.875037 -3.624691 -14.115935 0.488872 7.940781 23.666744 0.015002 2.075961 -8.601851 0.261600 -3.290500 -9.088500 3.814794 0.761012 0.556021 16.365094 7.215792 -12.479486 -1.697773 -8.371976 22.899104 0.068565 -3.446581 -9.619187 -0.019700 -0.906900 2.492600 -3.855249 -0.492275 -8.594581 5.680527 -0.165559 2.086309 5.083186 -0.020621 2.743369 0.633665 -0.644973 -13.120410 -2.822531 1.239656 37.656717 -2.591200 0.700700 18.471700 -0.622133 4.977311 -1.511339 -85.749217 4.371054 60.971162 102.601422 -61.880034 -69.509780 -0.534513 0.867886 -32.782948 3.438257 47.557725 2.482200 -7.125000 0.000000 0.000000 -53.730200 69.669400 -34.990800 0.802245 -3.685650 -1.913516 76.344775 -4.771336 66.412065 -111.144057 59.398332 -75.564404 0.065684 -0.538120 4.908412 -19.438450 16.973293 -6.103300 7.125000 0.000000 0.000000 5.535500 -11.521900 4.339100 
0.017955 17.953510 -9.382467 -3.558748 0.817185 9.138491 -1.613740 0.686771 1.148825 -9.876850 -3.713548 -14.189273 0.493279 7.953937 23.702805 0.010697 2.091714 -8.576590 0.274600 -3.370400 -9.311800 3.828299 0.761997 0.570181 16.344510 7.183705 -12.536773 -1.690637 -8.348736 22.839178 0.068907 -3.431846 -9.572119 -0.030700 -1.130500 3.107900 -3.955453 -0.558078 -8.713254 5.852815 -0.245368 2.286511 5.165898 -0.056700 2.848055 0.501994 -0.640635 -13.352000 -2.868676 1.305505 37.602454 -2.581500 0.695200 18.511400 -0.611005 4.977192 -1.528586 -85.353491 4.026528 62.322656 101.296819 -62.040948 -68.433453 -0.387041 1.002106 -29.306707 9.788411 50.131721 7.310400 -7.125000 0.000000 0.000000 -55.114200 73.234200 -39.842600 0.777053 -3.682886 -1.919604 76.206230 -4.479714 66.467511 -111.124001 59.403350 -75.537871 0.062744 -0.539087 4.951561 -19.453790 17.158112 -6.169900 7.125000 0.000000 0.000000 5.537000 -11.326300 4.362700 
0.027676 17.955692 -9.380880 -3.646384 0.887195 9.154634 -1.608804 0.681479 1.128836 -9.806130 -3.815846 -14.187892 0.498893 7.973722 23.748138 0.019021 2.078966 -8.676271 0.258700 -3.272500 -9.038500 3.826554 0.770789 0.551924 16.413332 7.169096 -12.502167 -1.683036 -8.333478 22.787121 0.077569 -3.491252 -9.541412 -0.025100 -1.022600 2.811100 -3.815021 -0.574529 -8.335496 5.858824 -0.268378 1.978960 5.067073 -0.069816 2.566434 0.309070 -0.781956 -13.283211 -2.803493 1.144643 37.707830 -2.549200 0.619100 18.516000 -0.590909 4.995227 -1.522117 -84.765938 4.110765 63.961123 99.630544 -62.218477 -67.075881 -0.219659 1.079042 -24.846265 14.246572 49.971916 10.641100 -7.125000 0.000000 0.000000 -51.229800 74.790700 -38.167400 0.776971 -3.674280 -1.897674 76.206605 -4.673832 66.549948 -111.290817 59.381454 -75.685548 0.062913 -0.537396 4.908266 -19.189595 17.230869 -6.103600 7.125000 0.000000 0.000000 5.715000 -11.285600 4.509100 
0.035115 17.956684 -9.378599 -3.911072 0.901849 9.197384 -1.584658 0.688439 1.114924 -9.549370 -3.874391 -14.198200 0.505504 7.989740 23.778647 0.019909 2.098309 -8.730149 0.244200 -3.180100 -8.780600 3.837898 0.780927 0.531955 16.672338 7.209951 -12.499930 -1.681746 -8.320490 22.756810 0.090615 -3.571581 -9.478319 -0.013100 -0.738400 2.029400 -3.609971 -0.584950 -8.111301 6.048115 -0.270284 1.696217 4.939915 -0.076223 2.388402 -0.231831 -1.119254 -12.995367 -2.601116 0.735994 37.686148 -2.442100 0.418100 18.386500 -0.567981 5.018275 -1.523618 -84.170539 4.109255 66.694177 96.618078 -62.466520 -64.662283 0.111160 1.131224 -15.864774 20.828720 48.553985 15.364700 -7.125000 0.000000 0.000000 -41.027500 76.502800 -31.315500 0.762902 -3.648539 -1.874426 76.160915 -4.818442 66.592469 -111.342825 59.378820 -75.735814 0.064986 -0.536407 4.803279 -18.959007 17.185789 -6.010700 7.125000 0.000000 0.000000 5.863800 -11.362300 4.618500 
0.040274 17.953709 -9.376119 -4.040406 0.884752 9.236613 -1.576302 0.690491 1.108367 -9.419383 -3.902847 -14.188698 0.512560 8.002924 23.811737 0.013251 2.131629 -8.702218 0.239000 -3.146400 -8.686500 3.837384 0.783247 0.521482 16.804955 7.206640 -12.521849 -1.679441 -8.309019 22.726714 0.100553 -3.621197 -9.389681 -0.010500 -0.661200 1.816900 -3.502587 -0.554408 -8.045673 6.059172 -0.228011 1.551763 4.873917 -0.057221 2.328396 -0.198098 -1.102990 -12.898509 -2.536387 0.729111 37.696763 -2.418000 0.432400 18.359900 -0.573807 5.021477 -1.514474 -84.283887 3.622065 66.998050 96.515416 -62.482105 -64.586437 0.139312 1.140239 -16.176623 22.745242 48.392690 16.807100 -7.125000 0.000000 0.000000 -38.583400 77.165100 -29.837300 0.764625 -3.649271 -1.866674 76.202317 -4.913156 66.543993 -111.240872 59.399187 -75.646084 0.063499 -0.535477 4.780214 -18.911886 17.272282 -6.022000 7.125000 0.000000 0.000000 5.900400 -11.279100 4.657800 
0.045531 17.949840 -9.373242 -4.007823 0.876754 9.217937 -1.588323 0.688797 1.111741 -9.457830 -3.941888 -14.133815 0.517600 8.012269 23.845010 0.013409 2.138184 -8.729166 0.217600 -3.002800 -8.286700 3.825157 0.779761 0.523947 16.771030 7.149937 -12.499029 -1.674327 -8.301275 22.696316 0.105143 -3.639077 -9.327831 -0.011300 -0.687200 1.888500 -3.485506 -0.501287 -8.019512 5.888751 -0.171189 1.566203 4.852056 -0.029506 2.307893 -0.058080 -1.111339 -12.831252 -2.505329 0.654312 37.662414 -2.437200 0.428600 18.316400 -0.565673 5.018403 -1.519862 -84.095589 3.611041 67.241943 96.831501 -62.468357 -64.858694 0.184736 1.138664 -16.537019 25.419430 47.210456 18.568300 -7.125000 0.000000 0.000000 -31.711200 77.423500 -24.476600 0.779599 -3.652425 -1.866901 76.342699 -4.873439 66.447714 -111.100969 59.426583 -75.520092 0.059878 -0.533826 4.800526 -18.884955 17.443234 -6.066600 7.125000 0.000000 0.000000 5.929100 -11.106700 4.701800 
